<?xml version="1.0" encoding="iso-8859-1"?>
<!-- Generator: Adobe Illustrator 25.4.1, SVG Export Plug-In . SVG Version: 6.00 Build 0)  -->
<svg version="1.1" id="Layer_2" xmlns="http://www.w3.org/2000/svg" xmlns:xlink="http://www.w3.org/1999/xlink" x="0px" y="0px"
	 viewBox="0 0 14 14" style="enable-background:new 0 0 14 14;" xml:space="preserve">
<polygon style="fill:#FFFFFF;" points="6,13 5,13 4,13 3,13 3,14 4,14 5,14 6,14 7,14 8,14 8,13 7,13 "/>
<rect x="8" y="12" style="fill:#FFFFFF;" width="1" height="1"/>
<polygon style="fill:#FFFFFF;" points="5,11 5,12 6,12 7,12 7,11 6,11 "/>
<polygon style="fill:#FFFFFF;" points="3,11 2,11 2,12 2,13 3,13 3,12 "/>
<polygon style="fill:#FFFFFF;" points="7,10 7,11 8,11 8,10 8,9 7,9 "/>
<polygon style="fill:#FFFFFF;" points="5,9 4,9 4,10 4,11 5,11 5,10 "/>
<polygon style="fill:#FFFFFF;" points="2,9 2,8 1,8 1,9 1,10 1,11 2,11 2,10 "/>
<polygon style="fill:#FFFFFF;" points="7,9 7,8 6,8 5,8 5,9 6,9 "/>
<polygon style="fill:#FFFFFF;" points="9,8 9,9 9,10 9,11 9,12 10,12 10,11 10,10 10,9 10,8 10,7 9,7 "/>
<polygon style="fill:#FFFFFF;" points="8,7 9,7 9,6 8,6 7,6 7,7 "/>
<rect x="2" y="6" style="fill:#FFFFFF;" width="1" height="1"/>
<polygon style="fill:#FFFFFF;" points="1,6 1,5 0,5 0,6 0,7 0,8 1,8 1,7 "/>
<polygon style="fill:#FFFFFF;" points="5,6 6,6 7,6 7,5 6,5 5,5 4,5 4,6 "/>
<polygon style="fill:#FFFFFF;" points="11,5 11,6 12,6 12,5 12,4 11,4 "/>
<polygon style="fill:#FFFFFF;" points="3,5 4,5 4,4 3,4 2,4 1,4 1,5 2,5 "/>
<polygon style="fill:#FFFFFF;" points="13,3 13,4 13,5 13,6 13,7 14,7 14,6 14,5 14,4 14,3 "/>
<rect x="10" y="3" style="fill:#FFFFFF;" width="1" height="1"/>
<rect x="12" y="2" style="fill:#FFFFFF;" width="1" height="1"/>
<polygon style="fill:#FFFFFF;" points="9,2 8,2 8,3 9,3 10,3 10,2 "/>
<rect x="11" y="1" style="fill:#FFFFFF;" width="1" height="1"/>
<polygon style="fill:#FFFFFF;" points="10,0 9,0 8,0 7,0 7,1 8,1 9,1 10,1 11,1 11,0 "/>
</svg>
