<?xml version="1.0" encoding="utf-8"?>
<!-- Generator: Adobe Illustrator 26.3.1, SVG Export Plug-In . SVG Version: 6.00 Build 0)  -->
<svg version="1.1" id="Layer_1" xmlns="http://www.w3.org/2000/svg" xmlns:xlink="http://www.w3.org/1999/xlink" x="0px" y="0px"
	 viewBox="0 0 105 78" style="enable-background:new 0 0 105 78;" xml:space="preserve">
<g>
	<path d="M29,74c-2.63,0-5.37,0-8,0v-1h1c0-0.5,0-1.5,0-2h1c0-0.5,0-1.5,0-2h1c0-0.89,0-2.11,0-3c-0.5,0-1.5,0-2,0c0,0.5,0,1.5,0,2
		h-1c0,0.5,0,1.5,0,2h-1c0,0.5,0,1.5,0,2h-1c0,0.5,0,1.5,0,2h-1c0,0.5,0,1.5,0,2c3.97,0,8.03,0,12,0v-1h1v-1C30.5,74,29.5,74,29,74z
		"/>
	<path d="M38,70v-1h1c0-0.89,0-2.11,0-3c-0.5,0-1.5,0-2,0c0,0.5,0,1.5,0,2h-1c0,0.5,0,1.5,0,2h-1c0,0.5,0,1.5,0,2h-1
		c0,0.5,0,1.5,0,2h-1c0,0.5,0,1.5,0,2c0.5,0,1.5,0,2,0v-1h1c0-0.5,0-1.5,0-2h1c0-0.5,0-1.5,0-2h1V70z"/>
	<path d="M70,69h1v-1h1c0-0.5,0-1.5,0-2c-4.64,0-9.36,0-14,0c0,0.5,0,1.5,0,2h-1c0,0.5,0,1.5,0,2h-1c0,0.5,0,1.5,0,2h-1
		c0,0.5,0,1.5,0,2h-1c0,0.5,0,1.5,0,2c0.5,0,1.5,0,2,0v-1h1c0-0.5,0-1.5,0-2h1v-1c3.3,0,6.7,0,10,0v-1h1v-1h1V69z M68,69h-1v1
		c-2.63,0-5.37,0-8,0v-1h1v-1c2.63,0,5.37,0,8,0V69z"/>
	<path d="M54,69h1v-1h1c0-0.5,0-1.5,0-2c-4.64,0-9.36,0-14,0c0,0.5,0,1.5,0,2h-1c0,0.5,0,1.5,0,2h-1c0,0.5,0,1.5,0,2h-1
		c0,0.5,0,1.5,0,2h-1c0,0.5,0,1.5,0,2c0.5,0,1.5,0,2,0v-1h1c0-0.5,0-1.5,0-2h1v-1c3.3,0,6.7,0,10,0v-1h1v-1h1V69z M52,69h-1v1
		c-2.63,0-5.37,0-8,0v-1h1v-1c2.63,0,5.37,0,8,0V69z"/>
	<path d="M87,68v-1h1v-1c-4.64,0-9.36,0-14,0c0,0.5,0,1.5,0,2h-1c0,0.5,0,1.5,0,2h-1c0,0.5,0,1.5,0,2h-1c0,0.5,0,1.5,0,2h-1
		c0,0.5,0,1.5,0,2c4.31,0,8.69,0,13,0v-1h1v-1c-3.64,0-7.36,0-11,0v-1h1v-1c2.97,0,6.03,0,9,0v-1h1v-1c-2.97,0-6.03,0-9,0v-1h1v-1
		C79.64,68,83.36,68,87,68z"/>
	<path d="M19,68v-1h1v-1c-4.98,0-10.02,0-15,0c0,0.5,0,1.5,0,2H4c0,0.5,0,1.5,0,2H3c0,0.5,0,1.5,0,2H2c0,0.5,0,1.5,0,2H1
		c0,0.5,0,1.5,0,2H0c0,0.5,0,1.5,0,2c0.5,0,1.5,0,2,0v-1h1c0-0.5,0-1.5,0-2h1c0-0.5,0-1.5,0-2h1v-1c2.97,0,6.03,0,9,0v-1h1v-1
		c-2.97,0-6.03,0-9,0v-1h1v-1C10.97,68,15.03,68,19,68z"/>
	<path d="M104,66c-4.64,0-9.36,0-14,0c0,0.5,0,1.5,0,2h-1c0,0.5,0,1.5,0,2h-1c0,0.5,0,1.5,0,2h-1c0,0.5,0,1.5,0,2h-1
		c0,0.5,0,1.5,0,2c0.5,0,1.5,0,2,0v-1h1c0-0.5,0-1.5,0-2h1v-1c2.29,0,4.71,0,7,0v1h1v1h1v1h1v1h1v1h1v1c0.5,0,1.5,0,2,0
		c0-0.5,0-1.5,0-2h-1v-1h-1v-1h-1v-1h-1c0-0.5,0-1.5,0-2h1v-1h1v-1h1v-1h1v-1h1v-1H104z M100,69h-1v1c-2.63,0-5.37,0-8,0v-1h1v-1
		c2.63,0,5.37,0,8,0V69z"/>
	<rect x="66" y="58" width="1" height="1"/>
	<rect x="64" y="58" width="1" height="1"/>
	<rect x="65" y="57" width="1" height="1"/>
	<rect x="63" y="57" width="1" height="1"/>
	<rect x="61" y="57" width="1" height="1"/>
	<rect x="62" y="56" width="1" height="1"/>
	<rect x="60" y="56" width="1" height="1"/>
	<rect x="59" y="55" width="1" height="1"/>
	<path d="M75,41c-0.89,0-2.11,0-3,0v1c1.6,0,3.4,0,5,0v-1C76.5,41,75.5,41,75,41z"/>
	<path d="M45,41h-1v1c0.5,0,1.5,0,2,0v-1H45z"/>
	<rect x="25" y="41" width="1" height="1"/>
	<rect x="23" y="41" width="1" height="1"/>
	<rect x="21" y="41" width="1" height="1"/>
	<path d="M79,40h-1v-1c-0.5,0-1.5,0-2,0v1h1v1c1.25,0,2.75,0,4,0v-1C80.5,40,79.5,40,79,40z"/>
	<rect x="43" y="40" width="1" height="1"/>
	<rect x="26" y="40" width="1" height="1"/>
	<rect x="24" y="40" width="1" height="1"/>
	<rect x="22" y="40" width="1" height="1"/>
	<rect x="20" y="40" width="1" height="1"/>
	<path d="M82,39h-1v1c0.89,0,2.11,0,3,0v-1C83.5,39,82.5,39,82,39z"/>
	<rect x="27" y="39" width="1" height="1"/>
	<rect x="25" y="39" width="1" height="1"/>
	<rect x="23" y="39" width="1" height="1"/>
	<rect x="21" y="39" width="1" height="1"/>
	<rect x="19" y="39" width="1" height="1"/>
	<path d="M84,38v1c0.5,0,1.5,0,2,0v-1C85.5,38,84.5,38,84,38z"/>
	<path d="M75,39h1v-1c-0.5,0-1.5,0-2,0v1H75z"/>
	<rect x="26" y="38" width="1" height="1"/>
	<rect x="24" y="38" width="1" height="1"/>
	<rect x="22" y="38" width="1" height="1"/>
	<rect x="20" y="38" width="1" height="1"/>
	<rect x="18" y="38" width="1" height="1"/>
	<rect x="25" y="37" width="1" height="1"/>
	<rect x="23" y="37" width="1" height="1"/>
	<rect x="21" y="37" width="1" height="1"/>
	<rect x="19" y="37" width="1" height="1"/>
	<rect x="24" y="36" width="1" height="1"/>
	<rect x="22" y="36" width="1" height="1"/>
	<rect x="20" y="36" width="1" height="1"/>
	<rect x="18" y="36" width="1" height="1"/>
	<path d="M29,35c0,0.5,0,1.5,0,2h-1v-1h-1v-1h-1c0-0.5,0-1.5,0-2h-1v1h-1v1h1v1h1v1h1v1h1v1h1v1h1c0-0.89,0-2.11,0-3h1
		c0-0.5,0-1.5,0-2C30.5,35,29.5,35,29,35z"/>
	<rect x="23" y="35" width="1" height="1"/>
	<rect x="21" y="35" width="1" height="1"/>
	<rect x="19" y="35" width="1" height="1"/>
	<rect x="28" y="34" width="1" height="1"/>
	<rect x="22" y="34" width="1" height="1"/>
	<rect x="20" y="34" width="1" height="1"/>
	<rect x="18" y="34" width="1" height="1"/>
	<path d="M34,34v-1c0.89,0,2.11,0,3,0v-1c1.95,0,4.05,0,6,0v-1h-1c0-1.6,0-3.4,0-5h-1c0-0.5,0-1.5,0-2h-1v-1c-0.5,0-1.5,0-2,0v-1
		c-1.6,0-3.4,0-5,0v1c-0.5,0-1.5,0-2,0v1h-1c0,0.5,0,1.5,0,2h-1c0,1.6,0,3.4,0,5h1c0,0.5,0,1.5,0,2h1c0,0.5,0,1.5,0,2h1v-1
		C32.5,34,33.5,34,34,34z M33,27v-1c0.5,0,1.5,0,2,0c0,0.5,0,1.5,0,2c-0.5,0-1.5,0-2,0V27z"/>
	<rect x="23" y="33" width="1" height="1"/>
	<rect x="21" y="33" width="1" height="1"/>
	<rect x="19" y="33" width="1" height="1"/>
	<path d="M28,32h-1c0,0.5,0,1.5,0,2h1C28,33.5,28,32.5,28,32z"/>
	<path d="M24,33h1c0-2.97,0-6.03,0-9h-1c0,2.29,0,4.71,0,7h-1v1h1V33z"/>
	<rect x="22" y="32" width="1" height="1"/>
	<rect x="20" y="32" width="1" height="1"/>
	<rect x="21" y="31" width="1" height="1"/>
	<path d="M47,30c0-1.95,0-4.05,0-6h-1c0,2.29,0,4.71,0,7c0.89,0,2.11,0,3,0v-1C48.5,30,47.5,30,47,30z"/>
	<path d="M27,30c0-1.6,0-3.4,0-5h-1c0,2.29,0,4.71,0,7h1C27,31.5,27,30.5,27,30z"/>
	<path d="M49,29v1c0.5,0,1.5,0,2,0v-1C50.5,29,49.5,29,49,29z"/>
	<path d="M51,28v1c0.5,0,1.5,0,2,0v-1C52.5,28,51.5,28,51,28z"/>
	<path d="M53,27v1c0.5,0,1.5,0,2,0v-1C54.5,27,53.5,27,53,27z"/>
	<path d="M55,26v1c0.5,0,1.5,0,2,0v-1C56.5,26,55.5,26,55,26z"/>
	<path d="M44,27c0,1.6,0,3.4,0,5h-1v1c0.5,0,1.5,0,2,0c0-2.63,0-5.37,0-8h-1C44,25.5,44,26.5,44,27z"/>
	<rect x="57" y="25" width="1" height="1"/>
	<path d="M58,24v1c0.5,0,1.5,0,2,0v-1C59.5,24,58.5,24,58,24z"/>
	<path d="M43,25h1c0-0.5,0-1.5,0-2h-1C43,23.5,43,24.5,43,25z"/>
	<path d="M28,24v-1h-1c0,0.5,0,1.5,0,2h1V24z"/>
	<rect x="60" y="23" width="1" height="1"/>
	<path d="M26,23v-1h-1c0,0.5,0,1.5,0,2h1V23z"/>
	<path d="M61,22v1c0.5,0,1.5,0,2,0v-1C62.5,22,61.5,22,61,22z"/>
	<path d="M54,22c-0.5,0-1.5,0-2,0v1c1.25,0,2.75,0,4,0v-1C55.5,22,54.5,22,54,22z"/>
	<path d="M46,22h-1c0,0.5,0,1.5,0,2h1C46,23.5,46,22.5,46,22z"/>
	<rect x="42" y="22" width="1" height="1"/>
	<rect x="28" y="22" width="1" height="1"/>
	<rect x="63" y="21" width="1" height="1"/>
	<path d="M56,21v1c0.5,0,1.5,0,2,0v-1C57.5,21,56.5,21,56,21z"/>
	<rect x="51" y="21" width="1" height="1"/>
	<rect x="44" y="21" width="1" height="1"/>
	<rect x="41" y="21" width="1" height="1"/>
	<rect x="29" y="21" width="1" height="1"/>
	<rect x="26" y="21" width="1" height="1"/>
	<path d="M64,20v1c0.5,0,1.5,0,2,0v-1C65.5,20,64.5,20,64,20z"/>
	<path d="M58,20v1c0.5,0,1.5,0,2,0v-1C59.5,20,58.5,20,58,20z"/>
	<rect x="50" y="20" width="1" height="1"/>
	<rect x="43" y="20" width="1" height="1"/>
	<path d="M40,21h1v-1c-0.5,0-1.5,0-2,0v1H40z"/>
	<path d="M32,21v-1c-0.5,0-1.5,0-2,0v1C30.5,21,31.5,21,32,21z"/>
	<rect x="27" y="20" width="1" height="1"/>
	<rect x="66" y="19" width="1" height="1"/>
	<rect x="60" y="19" width="1" height="1"/>
	<path d="M34,20c1.6,0,3.4,0,5,0v-1c-2.29,0-4.71,0-7,0v1C32.5,20,33.5,20,34,20z"/>
	<rect x="28" y="19" width="1" height="1"/>
	<path d="M61,18v1c0.5,0,1.5,0,2,0v-1C62.5,18,61.5,18,61,18z"/>
	<rect x="56" y="18" width="1" height="1"/>
	<path d="M50,18v-1h-1c0,0.89,0,2.11,0,3h1C50,19.5,50,18.5,50,18z"/>
	<path d="M31,19v-1c-0.5,0-1.5,0-2,0v1C29.5,19,30.5,19,31,19z"/>
	<rect x="63" y="17" width="1" height="1"/>
	<rect x="55" y="17" width="1" height="1"/>
	<path d="M33,18c2.29,0,4.71,0,7,0v1c0.5,0,1.5,0,2,0v1h1v-1h1c0-0.5,0-1.5,0-2h-1v1h-1v-1h-1v-1h-1v1c-2.97,0-6.03,0-9,0v1
		C31.5,18,32.5,18,33,18z"/>
	<rect x="59" y="16" width="1" height="1"/>
	<rect x="54" y="16" width="1" height="1"/>
	<path d="M51,16v-1h-1c0,0.5,0,1.5,0,2h1V16z"/>
	<path d="M45,16v-1h1c0-0.5,0-1.5,0-2h-1v1h-1v1h-1v1h1v1h1V16z"/>
	<rect x="42" y="16" width="1" height="1"/>
	<rect x="58" y="15" width="1" height="1"/>
	<rect x="41" y="15" width="1" height="1"/>
	<rect x="62" y="14" width="1" height="1"/>
	<rect x="57" y="14" width="1" height="1"/>
	<rect x="51" y="14" width="1" height="1"/>
	<rect x="42" y="14" width="1" height="1"/>
	<rect x="61" y="13" width="1" height="1"/>
	<rect x="56" y="13" width="1" height="1"/>
	<rect x="52" y="13" width="1" height="1"/>
	<rect x="43" y="13" width="1" height="1"/>
	<rect x="41" y="13" width="1" height="1"/>
	<rect x="60" y="12" width="1" height="1"/>
	<rect x="53" y="12" width="1" height="1"/>
	<rect x="46" y="12" width="1" height="1"/>
	<rect x="44" y="12" width="1" height="1"/>
	<rect x="42" y="12" width="1" height="1"/>
	<path d="M90,12v1h1c0,0.5,0,1.5,0,2c0.5,0,1.5,0,2,0c0-0.89,0-2.11,0-3h-1v-1h-1v-1c-0.89,0-2.11,0-3,0c0,0.5,0,1.5,0,2
		C88.5,12,89.5,12,90,12z"/>
	<rect x="59" y="11" width="1" height="1"/>
	<rect x="54" y="11" width="1" height="1"/>
	<rect x="45" y="11" width="1" height="1"/>
	<rect x="43" y="11" width="1" height="1"/>
	<rect x="55" y="10" width="1" height="1"/>
	<polygon points="47,11 47,12 48,12 48,11 49,11 49,10 48,10 48,9 47,9 47,10 46,10 46,11 	"/>
	<path d="M45,10h1V9c-0.89,0-2.11,0-3,0v1h1v1h1V10z"/>
	<rect x="56" y="9" width="1" height="1"/>
	<rect x="49" y="9" width="1" height="1"/>
	<rect x="50" y="8" width="1" height="1"/>
	<rect x="48" y="8" width="1" height="1"/>
	<path d="M42,8c-0.5,0-1.5,0-2,0v1c0.89,0,2.11,0,3,0V8H42z"/>
	<rect x="51" y="7" width="1" height="1"/>
	<rect x="49" y="7" width="1" height="1"/>
	<path d="M39,7c-2.29,0-4.71,0-7,0V6c1.25,0,2.75,0,4,0V5c4.31,0,8.69,0,13,0v1h1v1h1V6h1v1c1.6,0,3.4,0,5,0c0,0.5,0,1.5,0,2
		c1.25,0,2.75,0,4,0v1h1v1h1v1h1v1h1c0,0.89,0,2.11,0,3h-1v1c0.89,0,2.11,0,3,0c0,0.5,0,1.5,0,2c0.5,0,1.5,0,2,0v-1c0.5,0,1.5,0,2,0
		v-1c0.5,0,1.5,0,2,0v-1c0.5,0,1.5,0,2,0v-1c2.29,0,4.71,0,7,0v1c0.89,0,2.11,0,3,0v1h1v1c-1.25,0-2.75,0-4,0v1c-0.89,0-2.11,0-3,0
		v1c-0.5,0-1.5,0-2,0v1c-0.5,0-1.5,0-2,0v1h-1v1h-1v1h-1v1h-1v1h-1v1h-1v1h-1v1h-1v1h-1v1h-1v1h-1v1h-1v1h-1v1h-1v1h-1v1h-1v1h-1v1
		c-0.5,0-1.5,0-2,0v1c-0.5,0-1.5,0-2,0v1c-0.89,0-2.11,0-3,0v1c-1.6,0-3.4,0-5,0v1c8.65,0,17.35,0,26,0v-1c-3.97,0-8.03,0-12,0
		c0-0.5,0-1.5,0-2h1v-1h1v-1h1v-1c2.29,0,4.71,0,7,0v1c1.25,0,2.75,0,4,0v-1c3.97,0,8.03,0,12,0v1c0.5,0,1.5,0,2,0
		c0,0.89,0,2.11,0,3h-1v1h-1v1h-1v1h-1v1c-0.5,0-1.5,0-2,0v1c-0.89,0-2.11,0-3,0v1c-0.89,0-2.11,0-3,0v1c-0.89,0-2.11,0-3,0v1
		c-1.25,0-2.75,0-4,0v1c-1.25,0-2.75,0-4,0v1c-0.89,0-2.11,0-3,0v1c-0.5,0-1.5,0-2,0v1c-0.5,0-1.5,0-2,0c0,0.5,0,1.5,0,2h1v-1h1v1h1
		v1h1v-1h1v1h1v1h1v-1h1v1h1v1h1v1c0.5,0,1.5,0,2,0c0-0.89,0-2.11,0-3h-1c0-1.25,0-2.75,0-4h1c0-0.5,0-1.5,0-2c1.25,0,2.75,0,4,0v-1
		c0.89,0,2.11,0,3,0v-1c0.89,0,2.11,0,3,0v-1c0.89,0,2.11,0,3,0v-1c0.5,0,1.5,0,2,0v-1h1v-1h1v-1h1v-1h1c0-1.6,0-3.4,0-5h-1v-1
		c-5.65,0-11.35,0-17,0v-1h1v-1h1v-1h1v-1h1v-1h1v-1h1v-1h1v-1h1v-1h1v-1h1v-1h1v-1h1v-1h1v-1h1v-1h1v-1h1c0-1.25,0-2.75,0-4h-1v-1
		c-0.89,0-2.11,0-3,0v-1c-2.97,0-6.03,0-9,0v1c-0.5,0-1.5,0-2,0v1c-0.5,0-1.5,0-2,0v1c-0.5,0-1.5,0-2,0v-1h-1c0-0.5,0-1.5,0-2h-1
		c0-0.5,0-1.5,0-2h-1v-1h-1v-1h-1V9h-1V8c-0.5,0-1.5,0-2,0V7c-0.5,0-1.5,0-2,0V6c-0.89,0-2.11,0-3,0V5c-1.6,0-3.4,0-5,0V4
		c-4.98,0-10.02,0-15,0v1c-1.25,0-2.75,0-4,0v1c-0.89,0-2.11,0-3,0v1h-1v1c-0.5,0-1.5,0-2,0v1c-0.5,0-1.5,0-2,0v1h-1v1h-1v1h-1v1h-1
		v1h-1c0,0.5,0,1.5,0,2h-1c0,0.89,0,2.11,0,3h1c0-0.5,0-1.5,0-2h1c0-0.5,0-1.5,0-2h1v-1h1v-1h1v-1h1v-1h1v-1c0.5,0,1.5,0,2,0V9
		c0.5,0,1.5,0,2,0V8c3.97,0,8.03,0,12,0V7H39z"/>
	<path d="M90,7v1c0.5,0,1.5,0,2,0v1h1v1h1v1h1c0,0.5,0,1.5,0,2h1c0,0.5,0,1.5,0,2c0.5,0,1.5,0,2,0c0-0.89,0-2.11,0-3h-1
		c0-0.5,0-1.5,0-2h-1V9h-1V8h-1V7h-1V6c-0.5,0-1.5,0-2,0V5c-0.89,0-2.11,0-3,0c0,0.5,0,1.5,0,2C88.5,7,89.5,7,90,7z"/>
	<path d="M90,2h1v1c0.5,0,1.5,0,2,0v1c0.5,0,1.5,0,2,0v1h1v1h1v1h1v1h1c0,0.5,0,1.5,0,2h1c0,0.5,0,1.5,0,2h1c0,0.89,0,2.11,0,3
		c0.5,0,1.5,0,2,0c0-1.25,0-2.75,0-4h-1c0-0.5,0-1.5,0-2h-1c0-0.5,0-1.5,0-2h-1V6h-1V5h-1V4h-1V3h-1V2c-0.5,0-1.5,0-2,0V1
		c-0.5,0-1.5,0-2,0V0c-1.25,0-2.75,0-4,0c0,0.5,0,1.5,0,2C88.5,2,89.5,2,90,2z"/>
</g>
</svg>
