<?xml version="1.0" encoding="utf-8"?>
<!-- Generator: Adobe Illustrator 26.3.1, SVG Export Plug-In . SVG Version: 6.00 Build 0)  -->
<svg version="1.1" id="Layer_1" xmlns="http://www.w3.org/2000/svg" xmlns:xlink="http://www.w3.org/1999/xlink" x="0px" y="0px"
	 viewBox="0 0 14 14" style="enable-background:new 0 0 14 14;" xml:space="preserve">
<style type="text/css">
	.st0{fill:#FFFFFF;}
</style>
<g>
	<path class="st0" d="M13,13v1h1c0-0.9,0-2.1,0-3h-1C13,11.5,13,12.5,13,13z"/>
	<path class="st0" d="M4,12v1h1c0-0.9,0-2.1,0-3H4C4,10.5,4,11.5,4,12z"/>
	<path class="st0" d="M0,12c0,0.5,0,1.5,0,2h1c0-0.9,0-2.1,0-3H0V12z"/>
	<path class="st0" d="M11,10v1c0.5,0,1.5,0,2,0v-1C12.5,10,11.5,10,11,10z"/>
	<path class="st0" d="M9,11c0,0.5,0,1.5,0,2h1c0-0.9,0-2.1,0-3H9V11z"/>
	<path class="st0" d="M1,10v1c0.5,0,1.5,0,2,0v-1C2.5,10,1.5,10,1,10z"/>
	<rect x="10" y="9" class="st0" width="1" height="1"/>
	<rect x="3" y="9" class="st0" width="1" height="1"/>
	<rect x="9" y="8" class="st0" width="1" height="1"/>
	<rect x="4" y="8" class="st0" width="1" height="1"/>
	<path class="st0" d="M1,8c0-1.3,0-2.7,0-4H0c0,1.9,0,4.1,0,6h1C1,9.5,1,8.5,1,8z"/>
	<path class="st0" d="M8,7C7.1,7,5.9,7,5,7v1c0.5,0,1.5,0,2,0c0,0.9,0,2.1,0,3h1c0-0.9,0-2.1,0-3h1V7H8z"/>
	<rect x="10" y="6" class="st0" width="1" height="1"/>
	<rect x="11" y="5" class="st0" width="1" height="1"/>
	<rect x="9" y="5" class="st0" width="1" height="1"/>
	<path class="st0" d="M13,4c0,1.9,0,4.1,0,6h1c0-1.9,0-4.1,0-6H13z"/>
	<rect x="10" y="4" class="st0" width="1" height="1"/>
	<polygon class="st0" points="4,4 3,4 3,5 2,5 2,6 3,6 3,7 4,7 4,6 5,6 5,5 4,5 	"/>
	<rect x="12" y="3" class="st0" width="1" height="1"/>
	<rect x="1" y="3" class="st0" width="1" height="1"/>
	<path class="st0" d="M4,3c2.6,0,5.4,0,8,0V2h-1V1c-0.5,0-1.5,0-2,0v1C7.7,2,6.3,2,5,2V1C4.5,1,3.5,1,3,1v1H2v1C2.5,3,3.5,3,4,3z"/>
</g>
</svg>
