<?xml version="1.0" encoding="UTF-8"?><svg id="Layer_1" xmlns="http://www.w3.org/2000/svg" viewBox="0 0 13 14"><defs><style>.cls-1{fill:#fff;}</style></defs><rect class="cls-1" x="10" y="12" width="1" height="1"/><rect class="cls-1" x="6" y="12" width="1" height="1"/><rect class="cls-1" x="2" y="12" width="1" height="1"/><path class="cls-1" d="M12,10H0v4H1v-3h3v3h1v-3h3v3h1v-3h3v3h1v-4h-1Z"/><path class="cls-1" d="M10,7v2h1v-3h1V2h-1V0h-1V2h-1V6h1v1Z"/><path class="cls-1" d="M6,7v2h1v-3h1V2h-1V0h-1V2h-1V6h1v1Z"/><path class="cls-1" d="M2,7v2h1v-3h1V2h-1V0h-1V2H1V6h1v1Z"/></svg>