<?xml version="1.0" encoding="iso-8859-1"?>
<!-- Generator: Adobe Illustrator 25.4.1, SVG Export Plug-In . SVG Version: 6.00 Build 0)  -->
<svg version="1.1" id="Layer_4" xmlns="http://www.w3.org/2000/svg" xmlns:xlink="http://www.w3.org/1999/xlink" x="0px" y="0px"
	 viewBox="0 0 14 14" style="enable-background:new 0 0 14 14;" xml:space="preserve">
<g>
	<polygon style="fill:#FFFFFF;" points="6,13 5,13 4,13 3,13 3,14 4,14 5,14 6,14 7,14 7,13 	"/>
	<rect x="7" y="12" style="fill:#FFFFFF;" width="1" height="1"/>
	<rect x="2" y="12" style="fill:#FFFFFF;" width="1" height="1"/>
	<rect x="8" y="11" style="fill:#FFFFFF;" width="1" height="1"/>
	<polygon style="fill:#FFFFFF;" points="4,11 4,12 5,12 6,12 6,11 5,11 	"/>
	<rect x="1" y="11" style="fill:#FFFFFF;" width="1" height="1"/>
	<rect x="6" y="10" style="fill:#FFFFFF;" width="1" height="1"/>
	<rect x="3" y="10" style="fill:#FFFFFF;" width="1" height="1"/>
	<polygon style="fill:#FFFFFF;" points="1,10 1,9 1,8 1,7 0,7 0,8 0,9 0,10 0,11 1,11 	"/>
	<polygon style="fill:#FFFFFF;" points="8,8 7,8 7,9 7,10 8,10 8,9 	"/>
	<polygon style="fill:#FFFFFF;" points="3,8 2,8 2,9 2,10 3,10 3,9 	"/>
	<polygon style="fill:#FFFFFF;" points="9,8 9,9 9,10 9,11 10,11 10,10 10,9 10,8 10,7 9,7 	"/>
	<rect x="6" y="7" style="fill:#FFFFFF;" width="1" height="1"/>
	<rect x="3" y="7" style="fill:#FFFFFF;" width="1" height="1"/>
	<rect x="10" y="6" style="fill:#FFFFFF;" width="1" height="1"/>
	<rect x="8" y="6" style="fill:#FFFFFF;" width="1" height="1"/>
	<polygon style="fill:#FFFFFF;" points="6,7 6,6 5,6 4,6 4,7 5,7 	"/>
	<rect x="1" y="6" style="fill:#FFFFFF;" width="1" height="1"/>
	<rect x="11" y="5" style="fill:#FFFFFF;" width="1" height="1"/>
	<rect x="9" y="5" style="fill:#FFFFFF;" width="1" height="1"/>
	<rect x="7" y="5" style="fill:#FFFFFF;" width="1" height="1"/>
	<rect x="2" y="5" style="fill:#FFFFFF;" width="1" height="1"/>
	<rect x="10" y="4" style="fill:#FFFFFF;" width="1" height="1"/>
	<rect x="8" y="4" style="fill:#FFFFFF;" width="1" height="1"/>
	<polygon style="fill:#FFFFFF;" points="5,5 6,5 7,5 7,4 6,4 5,4 4,4 3,4 3,5 4,5 	"/>
	<rect x="9" y="3" style="fill:#FFFFFF;" width="1" height="1"/>
	<rect x="7" y="3" style="fill:#FFFFFF;" width="1" height="1"/>
	<rect x="8" y="2" style="fill:#FFFFFF;" width="1" height="1"/>
	<polygon style="fill:#FFFFFF;" points="13,0 12,0 11,0 10,0 10,1 9,1 9,2 10,2 10,3 11,3 11,2 12,2 12,3 11,3 11,4 12,4 12,5 13,5 
		13,4 14,4 14,3 14,2 14,1 13,1 	"/>
</g>
</svg>
