<?xml version="1.0" encoding="utf-8"?>
<!-- Generator: Adobe Illustrator 26.0.3, SVG Export Plug-In . SVG Version: 6.00 Build 0)  -->
<svg version="1.1" id="Layer_1" xmlns="http://www.w3.org/2000/svg" xmlns:xlink="http://www.w3.org/1999/xlink" x="0px" y="0px"
	 viewBox="0 0 14 14" style="enable-background:new 0 0 14 14;" xml:space="preserve">
<style type="text/css">
	.st0{fill:#FFFFFF;}
</style>
<g id="Layer_4">
	<g>
		<polygon class="st0" points="12,13 11,13 11,12 11,11 10,11 10,10 9,10 9,9 8,9 7,9 6,9 5,9 5,10 4,10 4,11 3,11 3,12 3,13 2,13 
			1,13 0,13 0,14 1,14 2,14 3,14 4,14 5,14 6,14 7,14 8,14 9,14 10,14 11,14 12,14 13,14 14,14 14,13 13,13 		"/>
		<polygon class="st0" points="7,7 8,7 9,7 9,6 8,6 7,6 6,6 5,6 5,7 6,7 		"/>
		<rect x="10" y="4" class="st0" width="1" height="1"/>
		<rect x="3" y="4" class="st0" width="1" height="1"/>
		<polygon class="st0" points="6,4 7,4 8,4 9,4 10,4 10,3 9,3 8,3 7,3 6,3 5,3 4,3 4,4 5,4 		"/>
		<rect x="13" y="2" class="st0" width="1" height="1"/>
		<rect y="2" class="st0" width="1" height="1"/>
		<polygon class="st0" points="12,2 13,2 13,1 12,1 11,1 11,2 		"/>
		<polygon class="st0" points="1,1 1,2 2,2 3,2 3,1 2,1 		"/>
		<polygon class="st0" points="4,1 5,1 6,1 7,1 8,1 9,1 10,1 11,1 11,0 10,0 9,0 8,0 7,0 6,0 5,0 4,0 3,0 3,1 		"/>
	</g>
</g>
</svg>
