<?xml version="1.0" encoding="iso-8859-1"?>
<!-- Generator: Adobe Illustrator 25.4.1, SVG Export Plug-In . SVG Version: 6.00 Build 0)  -->
<svg version="1.1" id="Layer_2" xmlns="http://www.w3.org/2000/svg" xmlns:xlink="http://www.w3.org/1999/xlink" x="0px" y="0px"
	 viewBox="0 0 14 14" style="enable-background:new 0 0 14 14;" xml:space="preserve">
<g>
	<rect x="11" y="13" style="fill:#FFFFFF;" width="1" height="1"/>
	<polygon style="fill:#FFFFFF;" points="12,12 12,13 13,13 13,12 13,11 12,11 	"/>
	<polygon style="fill:#FFFFFF;" points="10,11 10,10 9,10 9,11 9,12 10,12 	"/>
	<polygon style="fill:#FFFFFF;" points="11,9 11,8 11,7 11,6 11,5 11,4 10,4 10,5 10,6 10,7 10,8 10,9 10,10 11,10 	"/>
	<rect x="1" y="9" style="fill:#FFFFFF;" width="1" height="1"/>
	<polygon style="fill:#FFFFFF;" points="1,8 1,7 1,6 2,6 2,7 3,7 3,8 4,8 4,9 5,9 5,10 6,10 7,10 7,9 8,9 8,8 8,7 8,6 8,5 7,5 7,6 
		7,7 7,8 6,8 5,8 5,7 4,7 4,6 3,6 3,5 2,5 2,4 1,4 1,5 0,5 0,6 0,7 0,8 0,9 1,9 	"/>
	<rect x="6" y="4" style="fill:#FFFFFF;" width="1" height="1"/>
	<polygon style="fill:#FFFFFF;" points="13,4 13,5 13,6 13,7 13,8 13,9 13,10 13,11 14,11 14,10 14,9 14,8 14,7 14,6 14,5 14,4 
		14,3 13,3 	"/>
	<polygon style="fill:#FFFFFF;" points="12,3 13,3 13,2 13,1 12,1 12,2 	"/>
	<polygon style="fill:#FFFFFF;" points="10,2 9,2 9,3 9,4 10,4 10,3 	"/>
	<rect x="11" style="fill:#FFFFFF;" width="1" height="1"/>
</g>
</svg>
