<?xml version="1.0" encoding="utf-8"?>
<!-- Generator: Adobe Illustrator 26.2.1, SVG Export Plug-In . SVG Version: 6.00 Build 0)  -->
<svg version="1.1" id="FLIPPER" xmlns="http://www.w3.org/2000/svg" xmlns:xlink="http://www.w3.org/1999/xlink" x="0px" y="0px"
	 viewBox="0 0 105 12" style="enable-background:new 0 0 105 12;" xml:space="preserve">
<style type="text/css">
	.st0{fill:#FF8200;}
</style>
<polygon class="st0" points="29,8 28,8 27,8 26,8 25,8 24,8 23,8 22,8 21,8 21,7 22,7 22,6 22,5 23,5 23,4 23,3 24,3 24,2 24,1 
	24,1 24,0 23,0 23,0 22,0 22,1 22,1 22,2 21,2 21,3 21,4 20,4 20,5 20,6 19,6 19,7 19,8 18,8 18,9 18,10 19,10 20,10 21,10 22,10 
	23,10 24,10 25,10 26,10 27,10 28,10 29,10 30,10 30,9 31,9 31,8 30,8 "/>
<polygon class="st0" points="38,4 38,3 39,3 39,2 39,1 39,0 38,0 37,0 37,1 37,2 36,2 36,3 36,4 35,4 35,5 35,6 34,6 34,7 34,8 
	33,8 33,9 33,10 34,10 35,10 35,9 36,9 36,8 36,7 37,7 37,6 37,5 38,5 "/>
<path class="st0" d="M70,3h1V2h1V1V0h-1h-1h-1h-1h-1h-1h-1h-1h-1h-1h-1h-1h-1h-1v1v1h-1v1v1h-1v1v1h-1v1v1h-1v1v1h1h1V9h1V8V7h1V6h1
	h1h1h1h1h1h1h1h1h1V5h1V4h1V3z M68,3h-1v1h-1h-1h-1h-1h-1h-1h-1h-1V3h1V2h1h1h1h1h1h1h1h1V3z"/>
<path class="st0" d="M54,3h1V2h1V1V0h-1h-1h-1h-1h-1h-1h-1h-1h-1h-1h-1h-1h-1h-1v1v1h-1v1v1h-1v1v1h-1v1v1h-1v1v1h1h1V9h1V8V7h1V6h1
	h1h1h1h1h1h1h1h1h1V5h1V4h1V3z M52,3h-1v1h-1h-1h-1h-1h-1h-1h-1h-1V3h1V2h1h1h1h1h1h1h1h1V3z"/>
<polygon class="st0" points="87,2 87,1 88,1 88,0 87,0 86,0 85,0 84,0 83,0 82,0 81,0 80,0 79,0 78,0 77,0 76,0 75,0 74,0 74,1 
	74,2 73,2 73,3 73,4 72,4 72,5 72,6 71,6 71,7 71,8 70,8 70,9 70,10 71,10 72,10 73,10 74,10 75,10 76,10 77,10 78,10 79,10 80,10 
	81,10 82,10 83,10 83,9 84,9 84,8 83,8 82,8 81,8 80,8 79,8 78,8 77,8 76,8 75,8 74,8 73,8 73,7 74,7 74,6 75,6 76,6 77,6 78,6 
	79,6 80,6 81,6 82,6 83,6 83,5 84,5 84,4 83,4 82,4 81,4 80,4 79,4 78,4 77,4 76,4 75,4 75,3 76,3 76,2 77,2 78,2 79,2 80,2 81,2 
	82,2 83,2 84,2 85,2 86,2 "/>
<polygon class="st0" points="19,1 20,1 20,0 19,0 18,0 17,0 16,0 15,0 14,0 13,0 12,0 11,0 10,0 9,0 8,0 7,0 6,0 5,0 5,1 5,2 4,2 
	4,3 4,4 3,4 3,5 3,6 2,6 2,7 2,8 1,8 1,9 1,10 0,10 0,11 0,12 1,12 2,12 2,11 3,11 3,10 3,9 4,9 4,8 4,7 5,7 5,6 6,6 7,6 8,6 9,6 
	10,6 11,6 12,6 13,6 14,6 14,5 15,5 15,4 14,4 13,4 12,4 11,4 10,4 9,4 8,4 7,4 6,4 6,3 7,3 7,2 8,2 9,2 10,2 11,2 12,2 13,2 14,2 
	15,2 16,2 17,2 18,2 19,2 "/>
<path class="st0" d="M104,0h-1h-1h-1h-1h-1h-1h-1h-1h-1h-1h-1h-1h-1h-1v1v1h-1v1v1h-1v1v1h-1v1v1h-1v1v1h1h1V9h1V8V7h1V6h1h1h1h1h1
	h1h1v1h1v1h1v1h1v1h1v1h1v1h1h1v-1v0v-1h-1v0V9h-1V8h-1V7h-1V6V5h1V4h1V3h1V2h1V1h1V0H104z M100,3h-1v1h-1h-1h-1h-1h-1h-1h-1h-1V3h1
	V2h1h1h1h1h1h1h1h1V3z"/>
</svg>
