<?xml version="1.0" encoding="UTF-8"?><svg id="Layer_1" xmlns="http://www.w3.org/2000/svg" viewBox="0 0 14 14"><defs><style>.cls-1{fill:#fff;}</style></defs><path class="cls-1" d="M11,13H1v1H13v-1h-2Z"/><rect class="cls-1" x="10" y="11" width="1" height="1"/><rect class="cls-1" x="8" y="11" width="1" height="1"/><path class="cls-1" d="M1,11V4H0V13H1v-2Z"/><path class="cls-1" d="M6,11H3v-1h-1v2H7v-2h-1v1Z"/><rect class="cls-1" x="11" y="9" width="1" height="1"/><path class="cls-1" d="M10,9h-2v1h2v-1Z"/><path class="cls-1" d="M5,10h1v-1h-1v-1h1v-3H3v3h1v1h-1v1h2Z"/><path class="cls-1" d="M10,7h-2v1h4v-1h-2Z"/><path class="cls-1" d="M10,5h-2v1h4v-1h-2Z"/><path class="cls-1" d="M13,4V13h1V4h-1Z"/><path class="cls-1" d="M3,4H13v-1h-4V1h-1V3h-2V1h-1V3H1v1H3Z"/><path class="cls-1" d="M8,1V0h-2V1h2Z"/></svg>