<?xml version="1.0" encoding="UTF-8"?><svg id="Layer_1" xmlns="http://www.w3.org/2000/svg" viewBox="0 0 14 14"><defs><style>.cls-1{fill:#fff;}</style></defs><path class="cls-1" d="M11,11v2H5v-1h1v-1h-2v3H12v-2h1v-1h-2Z"/><path class="cls-1" d="M7,10v-1h-1v2h1v-1Z"/><path class="cls-1" d="M13,9v2h1v-2h-1Z"/><path class="cls-1" d="M3,9v1h2v-1H3Z"/><path class="cls-1" d="M7,8h1v-2h1v-1h-2v2h-2v2h1v-1h1Z"/><path class="cls-1" d="M3,7H1V1h1v1h1V0H0V8H2v1h1v-2Z"/><path class="cls-1" d="M10,7h1v2h2v-1h-1v-2h-3v1h1Z"/><path class="cls-1" d="M9,5h1V3h-1v2Z"/><path class="cls-1" d="M4,3h1v-1H3v1h1Z"/><path class="cls-1" d="M6,1h1V3h2v-1h-1V0h-3V2h1V1Z"/></svg>