<?xml version="1.0" encoding="UTF-8"?><svg id="Layer_1" xmlns="http://www.w3.org/2000/svg" viewBox="0 0 14 14"><defs><style>.cls-1{fill:#fff;}</style></defs><path class="cls-1" d="M4,13v-1h-1v2h3v-1h-2Z"/><path class="cls-1" d="M13,13h1v-2h-1v2Z"/><path class="cls-1" d="M12,12h-1v-1h-1v-1h-1v-1h-1v-1h-1v1h-1v4h1v-3h1v1h1v1h1v1h1v1h2v-1h-1v-1Z"/><path class="cls-1" d="M5,11v-1h-1v2h1v-1Z"/><rect class="cls-1" x="12" y="10" width="1" height="1"/><rect class="cls-1" x="11" y="9" width="1" height="1"/><path class="cls-1" d="M3,9h-1v1h2v-1h-1Z"/><path class="cls-1" d="M1,9v-1H0v3H2v-1H1v-1Z"/><rect class="cls-1" x="10" y="8" width="1" height="1"/><path class="cls-1" d="M3,8h2v-1h1v-1h-1v-1h1v1h1v-1h1V1h-1v3h-2v-1h-1v-1h-1V1h-1V0H0V2H1v1h1v1h1v1h1v2H1v1H3Z"/><path class="cls-1" d="M11,6h-2v1h-1v1h2v-1h3v-1h-2Z"/><path class="cls-1" d="M11,5h1v-1h-2v1h1Z"/><path class="cls-1" d="M13,3h-1v1h1v2h1V3h-1Z"/><path class="cls-1" d="M9,3v1h1V2h-1v1Z"/><path class="cls-1" d="M10,1v1h1V0h-3V1h2Z"/></svg>