<?xml version="1.0" encoding="utf-8"?>
<!-- Generator: Adobe Illustrator 26.0.3, SVG Export Plug-In . SVG Version: 6.00 Build 0)  -->
<svg version="1.1" id="Layer_1" xmlns="http://www.w3.org/2000/svg" xmlns:xlink="http://www.w3.org/1999/xlink" x="0px" y="0px"
	 viewBox="0 0 14 14" style="enable-background:new 0 0 14 14;" xml:space="preserve">
<style type="text/css">
	.st0{fill:#FFFFFF;}
</style>
<g id="Layer_4">
	<g>
		<polygon class="st0" points="8,12 8,11 8,10 8,9 8,8 8,7 7,7 6,7 6,8 6,9 6,10 6,11 6,12 6,13 6,14 7,14 8,14 8,13 		"/>
		<rect x="11" y="9" class="st0" width="1" height="1"/>
		<rect x="2" y="9" class="st0" width="1" height="1"/>
		<rect x="12" y="8" class="st0" width="1" height="1"/>
		<rect x="1" y="8" class="st0" width="1" height="1"/>
		<rect x="10" y="7" class="st0" width="1" height="1"/>
		<rect x="3" y="7" class="st0" width="1" height="1"/>
		<polygon class="st0" points="1,7 1,6 1,5 1,4 1,3 1,2 0,2 0,3 0,4 0,5 0,6 0,7 0,8 1,8 		"/>
		<polygon class="st0" points="10,5 10,4 9,4 9,5 9,6 10,6 		"/>
		<polygon class="st0" points="3,5 3,4 3,3 2,3 2,4 2,5 2,6 2,7 3,7 3,6 		"/>
		<polygon class="st0" points="11,5 11,6 11,7 12,7 12,6 12,5 12,4 12,3 11,3 11,4 		"/>
		<polygon class="st0" points="8,4 7,4 6,4 6,5 6,6 7,6 8,6 8,5 		"/>
		<polygon class="st0" points="4,5 4,6 5,6 5,5 5,4 4,4 		"/>
		<polygon class="st0" points="13,3 13,4 13,5 13,6 13,7 13,8 14,8 14,7 14,6 14,5 14,4 14,3 14,2 13,2 		"/>
		<rect x="10" y="2" class="st0" width="1" height="1"/>
		<rect x="3" y="2" class="st0" width="1" height="1"/>
		<rect x="12" y="1" class="st0" width="1" height="1"/>
		<rect x="1" y="1" class="st0" width="1" height="1"/>
		<rect x="11" class="st0" width="1" height="1"/>
		<rect x="2" class="st0" width="1" height="1"/>
	</g>
</g>
</svg>
