<?xml version="1.0" encoding="UTF-8"?><svg id="Layer_1" xmlns="http://www.w3.org/2000/svg" viewBox="0 0 14 14"><defs><style>.cls-1{fill:#fff;}</style></defs><path class="cls-1" d="M11,13H1v1H13v-1h-2Z"/><path class="cls-1" d="M1,11V6H0v7H1v-2Z"/><path class="cls-1" d="M7,11h-1v1h3v-1h-1v-1h-1v1Z"/><path class="cls-1" d="M10,7v5h1v-2h1v-1h-1v-1h1v-1h-2Z"/><path class="cls-1" d="M7,7h-1v2h1v-1h1v2h1v-3h-2Z"/><path class="cls-1" d="M4,8v3h-1V7h-1v5h3V7h-1v1Z"/><path class="cls-1" d="M13,6v7h1V6h-1Z"/><path class="cls-1" d="M3,6H13v-1H4V2h-1v3H1v1H3Z"/><path class="cls-1" d="M10,4h1V2h-1v2Z"/><rect class="cls-1" x="9" y="1" width="1" height="1"/><rect class="cls-1" x="4" y="1" width="1" height="1"/><path class="cls-1" d="M7,1h2V0H5V1h2Z"/></svg>